# xmcd
# 
# Track frame offsets:
#     150
#     92942
#     119835
#     170960
# 
# Disc length: 2450
# 
# Revision: 1
# Processed by: cddbd v1.5.2PL0 Copyright (c) Steve Scherf et al.
# Submitted via: BonkEnc v1.0.6
# 
DISCID=3b099004
DTITLE=菊地雅章 - One-Way Traveller
DYEAR=1980
DGENRE=Jazz
TTITLE0=Alacalder
TTITLE1=Sum Dum Fun
TTITLE2=Nadjap Express
TTITLE3=Sky Talk
EXTD=
EXTT0=
EXTT1=
EXTT2=
EXTT3=
PLAYORDER=
